<svg id="ae565fc9-2cdc-43e6-9f8b-cae87d30449f" data-name="Layer 1" xmlns="http://www.w3.org/2000/svg" viewBox="0 0 365.14 365.14"><defs><style>.f950d888-1212-4667-b386-345aa94167de{fill:#dd8820;stroke:#1d1d1b;stroke-miterlimit:10;stroke-width:1.5px;}.a8bbae21-996a-4c9f-9f1d-b043a708a869{fill:#27281e;}</style></defs><path class="f950d888-1212-4667-b386-345aa94167de" d="M.75.75H334.39a30,30,0,0,1,30,30V364.39a0,0,0,0,1,0,0H30.75a30,30,0,0,1-30-30V.75A0,0,0,0,1,.75.75Z"/><path class="a8bbae21-996a-4c9f-9f1d-b043a708a869" d="M499.9,631.08q0,11-1.81,17.1-3.27,10.73-10.52,16.83a2.38,2.38,0,0,1-1.37.75,1.33,1.33,0,0,1-1-.57q-1.55-1.82-4.82-5.44c-1.26-1.06-3.14-2.71-5.61-5a1.49,1.49,0,0,1-.49-.88,1.25,1.25,0,0,1,.49-.84,45.79,45.79,0,0,0,4.15-3.93,14.51,14.51,0,0,0,2.66-5.22q1.23-4.27,1.23-14.09,0-22.71-1.59-35.22a3.66,3.66,0,0,1-.09-.66c0-.53.47-.8,1.42-.8s2.33.05,4.17.13,3.24.14,4.18.14,2.19,0,3.93-.14,3.05-.13,3.93-.13,1.29.38,1.29,1.15q0,6.11-.09,18.36T499.9,631.08Z" transform="translate(-357.43 -357.43)"/><path class="a8bbae21-996a-4c9f-9f1d-b043a708a869" d="M550.94,633.33q0,10.06-6.17,16.35T528.58,656q-9.72,0-16-6.18t-6.27-15.91q0-10.25,6-16.64t16.26-6.38q10,0,16.17,6.25T550.94,633.33Zm-14.5,0a9.55,9.55,0,0,0-2.16-6.17,6.91,6.91,0,0,0-5.61-2.67,7.11,7.11,0,0,0-5.75,2.74,9.89,9.89,0,0,0,0,12.24,7.35,7.35,0,0,0,11.45,0A9.48,9.48,0,0,0,536.44,633.33Z" transform="translate(-357.43 -357.43)"/><path class="a8bbae21-996a-4c9f-9f1d-b043a708a869" d="M604.18,633.46q0,9.28-5.3,15.51a18.47,18.47,0,0,1-14.76,6.63q-6.63,0-10.69-3.8a.91.91,0,0,0-.53-.27c-.3,0-.57.55-.82,1.64s-.55,1.69-.91,1.81-4.69.22-12.59.22c-1.85,0-2.78-.34-2.78-1a5.88,5.88,0,0,1,.09-.67q.87-7,.88-26.77,0-18.87-1.33-32.84l0-.48c0-.47.46-.74,1.37-.8q1,0,7.69-.66c3.15-.3,5.71-.44,7.69-.44.56,0,.84.48.84,1.46,0,1.14-.08,2.66-.22,4.55-.18,2.32-.28,3.86-.31,4.59q-.23,4.38-.22,11.93c0,.92.23,1.37.7,1.37a.88.88,0,0,0,.67-.35A13.6,13.6,0,0,1,584,610.84q9.69,0,15.12,6.58Q604.17,623.53,604.18,633.46Zm-16-.48a9,9,0,0,0-2.26-6.21,7.45,7.45,0,0,0-5.87-2.54,7.24,7.24,0,0,0-5.86,2.54,9.41,9.41,0,0,0-2.14,6.29,9.19,9.19,0,0,0,2.08,6.28,7.56,7.56,0,0,0,6,2.52,7.41,7.41,0,0,0,6-2.61A9.29,9.29,0,0,0,588.19,633Z" transform="translate(-357.43 -357.43)"/><path class="a8bbae21-996a-4c9f-9f1d-b043a708a869" d="M488.79,548.18q0,9-7.56,15.37a32.4,32.4,0,0,1-16.13,7.21l-.57,0q-1,0-4.51-6.21c-2.33-4.14-3.49-6.66-3.49-7.58,0-.32.22-.53.66-.62a46.76,46.76,0,0,0,8.49-2.47q4.59-2.29,4.59-6.8,0-2.88-3-6.41-5.22-6-5.66-6.67a18.06,18.06,0,0,1-3.05-10.17q0-8.08,7.47-13.43a33.55,33.55,0,0,1,15-5.75l.75,0c.44,0,.8.35,1.06,1.06q1.15,3.23,5.35,11.67a1,1,0,0,1,.13.44c0,.5-.27.75-.8.75a8.52,8.52,0,0,1-1.19-.13,9,9,0,0,0-1.28-.14,10.49,10.49,0,0,0-5.57,1.46,5.2,5.2,0,0,0-2.87,4.69q0,2.68,3.18,6.62,5.61,7.08,5.88,7.43A17.75,17.75,0,0,1,488.79,548.18Z" transform="translate(-357.43 -357.43)"/><path class="a8bbae21-996a-4c9f-9f1d-b043a708a869" d="M539.91,536.47,539.82,567c0,1-.41,1.6-1.23,1.72s-3.1.18-6.46.18a42.34,42.34,0,0,1-6.76-.36,1.68,1.68,0,0,1-1.45-1.9c0-2.53,0-6.35.13-11.44s.13-8.91.13-11.45c0-3.44-1.75-5.17-5.26-5.17a8.4,8.4,0,0,0-4.15,1.42c-1.74,1-2.61,2.1-2.61,3.22V554.1q0,2.11.09,6.38c.06,2.85.09,5,.09,6.39,0,1.09-.46,1.69-1.37,1.81s-3.48.18-7.69.18a26.34,26.34,0,0,1-5.21-.36c-1.07-.23-1.6-.75-1.6-1.54q0-3.5,0-10.5t0-10.49q0-14.46-.31-23.91c-.08-2.21-.16-4.42-.22-6.63a46,46,0,0,0-.79-6.58,4.41,4.41,0,0,1-.14-.84.88.88,0,0,1,.67-.89,17.81,17.81,0,0,1,4-.48c2.36-.09,3.73-.16,4.11-.22l8-.93c.47,0,.7.31.7.93,0,.94-.06,2.22-.17,3.84-.12,1.89-.18,3.17-.18,3.85q-.27,10-.27,15.77c0,.59.15.89.45.89.05,0,.81-.52,2.25-1.55a29.5,29.5,0,0,1,4.9-2.87,16.72,16.72,0,0,1,6.77-1.55,14.92,14.92,0,0,1,9.45,3A10.41,10.41,0,0,1,539.91,536.47Z" transform="translate(-357.43 -357.43)"/><path class="a8bbae21-996a-4c9f-9f1d-b043a708a869" d="M589.62,546.76q0,10.08-6.16,16.35t-16.2,6.28q-9.72,0-16-6.19T545,547.29q0-10.24,6-16.63t16.26-6.39q10,0,16.18,6.25T589.62,546.76Zm-14.49,0A9.46,9.46,0,0,0,573,540.6a6.89,6.89,0,0,0-5.61-2.68,7.13,7.13,0,0,0-5.74,2.74,9.89,9.89,0,0,0,0,12.24,7.34,7.34,0,0,0,11.44,0A9.39,9.39,0,0,0,575.13,546.76Z" transform="translate(-357.43 -357.43)"/><path class="a8bbae21-996a-4c9f-9f1d-b043a708a869" d="M624.53,555.55a36.51,36.51,0,0,1-.33,4,36.15,36.15,0,0,0-.33,3.95,3,3,0,0,1-.27,1.61,5.09,5.09,0,0,1-1.45,1,25.81,25.81,0,0,1-12.64,3.14q-12.78,0-12.77-9.77c0-1.94.07-4.87.22-8.77s.22-6.83.22-8.77q0-1.95-2.25-2h-.58l-.57.05c-1.12,0-1.68-.4-1.68-1.19,0-.48,0-1.2.11-2.17s.11-1.69.11-2.16c0-.62,0-1.57-.11-2.83s-.11-2.21-.11-2.83.94-.91,2.83-1c1.06,0,1.63-.33,1.72-.89a33.13,33.13,0,0,0,.18-5.3q-.18-5.7-.18-5.43,0-5.13,1-5.13a15.92,15.92,0,0,1,3.4.53,32.92,32.92,0,0,0,3.49.66q2.26.32,6.81.84c.74.06,1.1.31,1.1.75,0,1.18-.09,3-.28,5.35s-.29,4.18-.29,5.39c0,1.45.43,2.17,1.28,2.17,1,0,2.59,0,4.69-.14s3.66-.13,4.72-.13c.65,0,1,.22,1,.66a30.59,30.59,0,0,1-.23,3.05c-.14,1.36-.22,2.38-.22,3s0,1.74,0,3.1,0,2.38,0,3.09-.43.93-1.28.93c-.59,0-1.58,0-3-.07s-2.37-.07-3-.07h-3.31c-.45,0-.67.65-.67,1.95v3.14c0,1.41,0,2.46,0,3.13q0,3.72.84,5.13,1.18,1.9,4.68,1.9a14.2,14.2,0,0,0,3.16-.51,14.12,14.12,0,0,1,2.89-.51C624.22,554.58,624.53,554.91,624.53,555.55Z" transform="translate(-357.43 -357.43)"/><path class="a8bbae21-996a-4c9f-9f1d-b043a708a869" d="M523.14,451.73q0,13.78-8.79,23.11-9,9.45-22.71,9.45T469,474.75q-8.84-9.33-8.84-23T469,428.62a31.53,31.53,0,0,1,45.29,0A32.49,32.49,0,0,1,523.14,451.73Zm-16.74-.09a16.62,16.62,0,0,0-4-11.27,13.54,13.54,0,0,0-10.73-4.86,13.4,13.4,0,0,0-10.56,5,17.52,17.52,0,0,0-.27,22.44,14.24,14.24,0,0,0,21.43-.26A16.38,16.38,0,0,0,506.4,451.64Z" transform="translate(-357.43 -357.43)"/><path class="a8bbae21-996a-4c9f-9f1d-b043a708a869" d="M573.34,481.38a1.27,1.27,0,0,1-1.24,1.37q-1.23.17-6.45.17a52,52,0,0,1-6.89-.26,1.6,1.6,0,0,1-1.33-1.81c0-1.39.05-3.48.13-6.28s.14-4.9.14-6.32c0-1.09,0-2.72-.09-4.88s-.09-3.79-.09-4.88q0-6.06-5.26-6.06a7.67,7.67,0,0,0-4,1.5c-1.65,1.12-2.47,2.23-2.47,3.32v23.86a1.46,1.46,0,0,1-1.37,1.64q-1.54.17-6.32.17a53.14,53.14,0,0,1-6.72-.26A1.4,1.4,0,0,1,530,481.2q0-3.45,0-10.39c0-4.62,0-8.1,0-10.42q0-11-1.72-17.28a3.18,3.18,0,0,1-.09-.66,1,1,0,0,1,.66-1c1.86-.2,4.33-.53,7.42-1,4.69-.91,7.32-1.37,7.91-1.37.33,0,.58,1,.76,3s.42,3,.75,3c-.33,0,1.26-1,4.75-3.07s6.54-3.07,9.17-3.07a15.79,15.79,0,0,1,9.36,2.65,9.89,9.89,0,0,1,4.2,8.48v14.1c0,1.91,0,4.78,0,8.59S573.34,479.46,573.34,481.38Z" transform="translate(-357.43 -357.43)"/><path class="a8bbae21-996a-4c9f-9f1d-b043a708a869" d="M621.2,458.66q0,4.47-2.88,5.08-.48.09-9.14,1-5.22.57-15.56,1.37a6.27,6.27,0,0,0,3.76,4.37,13.17,13.17,0,0,0,5.83,1.24,16.74,16.74,0,0,0,7.91-2.12l3.36-2.12q.93.44,3.11,4.5c1.46,2.71,2.19,4.44,2.19,5.17q0,.31-.66,1-5.4,5.79-16.75,5.79-10.51,0-17-6.14-6.63-6.24-6.63-16.66,0-10.17,5.93-16.66,6.09-6.72,16.17-6.72a19.16,19.16,0,0,1,14.4,6.19A20.54,20.54,0,0,1,621.2,458.66ZM605.73,456a6.87,6.87,0,0,0-1.94-4.82,6.18,6.18,0,0,0-4.64-2.08,5.57,5.57,0,0,0-4.6,2.35,8,8,0,0,0-1.68,5.08c0,.79.41,1.19,1.24,1.19a77.21,77.21,0,0,0,10.16-1C605.24,456.53,605.73,456.29,605.73,456Z" transform="translate(-357.43 -357.43)"/></svg>